<svg width="500" height="164" viewBox="0 0 500 164" fill="none" xmlns="http://www.w3.org/2000/svg" role="img" aria-label="Most used languages"><style>.t{font:600 18px "Segoe UI",Ubuntu,sans-serif;fill:#58a6ff}.n{font:400 13px "Segoe UI",Ubuntu,sans-serif;fill:#c9d1d9}.g{opacity:0;animation:f .5s ease-in-out forwards}@keyframes f{to{opacity:1}}</style><rect x=".5" y=".5" rx="6" width="499" height="163" fill="#0d1117" stroke="#30363d"/><text x="25" y="35" class="t">Most Used Languages</text><mask id="m"><rect x="25" y="52" width="450" height="10" rx="5" fill="#fff"/></mask><g mask="url(#m)"><rect x="25.00" y="52" width="218.66" height="10" fill="#3572A5"/><rect x="243.66" y="52" width="148.41" height="10" fill="#3178c6"/><rect x="392.07" y="52" width="35.32" height="10" fill="#e34c26"/><rect x="427.39" y="52" width="18.11" height="10" fill="#DA5B0B"/><rect x="445.50" y="52" width="11.72" height="10" fill="#563d7c"/><rect x="457.22" y="52" width="8.66" height="10" fill="#f34b7d"/><rect x="465.88" y="52" width="9.12" height="10" fill="#8b949e"/></g><g class="g" style="animation-delay:0.2s"><circle cx="30" cy="88" r="5" fill="#3572A5"/><text x="43" y="92" class="n">Python 48.59%</text></g><g class="g" style="animation-delay:0.30000000000000004s"><circle cx="265" cy="88" r="5" fill="#3178c6"/><text x="278" y="92" class="n">TypeScript 32.98%</text></g><g class="g" style="animation-delay:0.4s"><circle cx="30" cy="112" r="5" fill="#e34c26"/><text x="43" y="116" class="n">HTML 7.85%</text></g><g class="g" style="animation-delay:0.5s"><circle cx="265" cy="112" r="5" fill="#DA5B0B"/><text x="278" y="116" class="n">Jupyter Notebook 4.02%</text></g><g class="g" style="animation-delay:0.6000000000000001s"><circle cx="30" cy="136" r="5" fill="#563d7c"/><text x="43" y="140" class="n">CSS 2.60%</text></g><g class="g" style="animation-delay:0.7s"><circle cx="265" cy="136" r="5" fill="#f34b7d"/><text x="278" y="140" class="n">C++ 1.92%</text></g></svg>