<svg width="500" height="164" viewBox="0 0 500 164" fill="none" xmlns="http://www.w3.org/2000/svg" role="img" aria-label="Most used languages"><style>.t{font:600 18px "Segoe UI",Ubuntu,sans-serif;fill:#0969da}.n{font:400 13px "Segoe UI",Ubuntu,sans-serif;fill:#1f2328}.g{opacity:0;animation:f .5s ease-in-out forwards}@keyframes f{to{opacity:1}}</style><rect x=".5" y=".5" rx="6" width="499" height="163" fill="#ffffff" stroke="#d0d7de"/><text x="25" y="35" class="t">Most Used Languages</text><mask id="m"><rect x="25" y="52" width="450" height="10" rx="5" fill="#fff"/></mask><g mask="url(#m)"><rect x="25.00" y="52" width="198.78" height="10" fill="#3572A5"/><rect x="223.78" y="52" width="163.98" height="10" fill="#3178c6"/><rect x="387.77" y="52" width="43.38" height="10" fill="#e34c26"/><rect x="431.15" y="52" width="16.36" height="10" fill="#DA5B0B"/><rect x="447.50" y="52" width="11.33" height="10" fill="#563d7c"/><rect x="458.83" y="52" width="7.82" height="10" fill="#f34b7d"/><rect x="466.66" y="52" width="8.34" height="10" fill="#59636e"/></g><g class="g" style="animation-delay:0.2s"><circle cx="30" cy="88" r="5" fill="#3572A5"/><text x="43" y="92" class="n">Python 44.17%</text></g><g class="g" style="animation-delay:0.30000000000000004s"><circle cx="265" cy="88" r="5" fill="#3178c6"/><text x="278" y="92" class="n">TypeScript 36.44%</text></g><g class="g" style="animation-delay:0.4s"><circle cx="30" cy="112" r="5" fill="#e34c26"/><text x="43" y="116" class="n">HTML 9.64%</text></g><g class="g" style="animation-delay:0.5s"><circle cx="265" cy="112" r="5" fill="#DA5B0B"/><text x="278" y="116" class="n">Jupyter Notebook 3.63%</text></g><g class="g" style="animation-delay:0.6000000000000001s"><circle cx="30" cy="136" r="5" fill="#563d7c"/><text x="43" y="140" class="n">CSS 2.52%</text></g><g class="g" style="animation-delay:0.7s"><circle cx="265" cy="136" r="5" fill="#f34b7d"/><text x="278" y="140" class="n">C++ 1.74%</text></g></svg>