<svg width="500" height="210" viewBox="0 0 500 210" fill="none" xmlns="http://www.w3.org/2000/svg" role="img" aria-label="GitHub statistics"><style>.t{font:600 18px "Segoe UI",Ubuntu,sans-serif;fill:#58a6ff}.l{font:400 14px "Segoe UI",Ubuntu,sans-serif;fill:#c9d1d9}.v{font:700 14px "Segoe UI",Ubuntu,sans-serif;fill:#c9d1d9}.r{opacity:0;animation:f .5s ease-in-out forwards}@keyframes f{to{opacity:1;transform:translateX(0)}}</style><rect x=".5" y=".5" rx="6" width="499" height="209" fill="#0d1117" stroke="#30363d"/><text x="25" y="35" class="t">Divyakush's GitHub Stats</text><g class="r" style="animation-delay:0.15s"><g transform="translate(25,50)"><svg width="16" height="16" viewBox="0 0 16 16" fill="#58a6ff"><path d="M11.93 8.5a4.002 4.002 0 0 1-7.86 0H.75a.75.75 0 0 1 0-1.5h3.32a4.002 4.002 0 0 1 7.86 0h3.32a.75.75 0 0 1 0 1.5Zm-1.43-.75a2.5 2.5 0 1 0-5 0 2.5 2.5 0 0 0 5 0Z"/></svg></g><text x="52" y="62" class="l">Total Commits (past year):</text><text x="475" y="62" class="v" text-anchor="end">302</text></g><g class="r" style="animation-delay:0.27s"><g transform="translate(25,80)"><svg width="16" height="16" viewBox="0 0 16 16" fill="#58a6ff"><path d="M1.5 1.75V13.5h13.75a.75.75 0 0 1 0 1.5H.75a.75.75 0 0 1-.75-.75V1.75a.75.75 0 0 1 1.5 0Zm14.28 2.53-5.25 5.25a.75.75 0 0 1-1.06 0L7 7.06 4.28 9.78a.751.751 0 0 1-1.042-.018.751.751 0 0 1-.018-1.042l3.25-3.25a.75.75 0 0 1 1.06 0L9 7.94l4.72-4.72a.751.751 0 0 1 1.042.018.751.751 0 0 1 .018 1.042Z"/></svg></g><text x="52" y="92" class="l">Total Contributions:</text><text x="475" y="92" class="v" text-anchor="end">343</text></g><g class="r" style="animation-delay:0.39s"><g transform="translate(25,110)"><svg width="16" height="16" viewBox="0 0 16 16" fill="#58a6ff"><path d="M2 2.5A2.5 2.5 0 0 1 4.5 0h8.75a.75.75 0 0 1 .75.75v12.5a.75.75 0 0 1-.75.75h-2.5a.75.75 0 0 1 0-1.5h1.75v-2h-8a1 1 0 0 0-.714 1.7.75.75 0 1 1-1.072 1.05A2.495 2.495 0 0 1 2 11.5Zm10.5-1h-8a1 1 0 0 0-1 1v6.708A2.486 2.486 0 0 1 4.5 9h8Z"/></svg></g><text x="52" y="122" class="l">Repositories Contributed To:</text><text x="475" y="122" class="v" text-anchor="end">34</text></g><g class="r" style="animation-delay:0.51s"><g transform="translate(25,140)"><svg width="16" height="16" viewBox="0 0 16 16" fill="#58a6ff"><path d="M0 1.75A.75.75 0 0 1 .75 1h4.253c1.227 0 2.317.59 3 1.501A3.743 3.743 0 0 1 11.006 1h4.245a.75.75 0 0 1 .75.75v10.5a.75.75 0 0 1-.75.75h-4.507a2.25 2.25 0 0 0-1.591.659l-.622.621a.75.75 0 0 1-1.06 0l-.622-.621A2.25 2.25 0 0 0 5.258 13H.75a.75.75 0 0 1-.75-.75Z"/></svg></g><text x="52" y="152" class="l">Public Repositories:</text><text x="475" y="152" class="v" text-anchor="end">19</text></g><g class="r" style="animation-delay:0.63s"><g transform="translate(25,170)"><svg width="16" height="16" viewBox="0 0 16 16" fill="#58a6ff"><path d="M8 .25a.75.75 0 0 1 .673.418l1.882 3.815 4.21.612a.75.75 0 0 1 .416 1.279l-3.046 2.97.719 4.192a.75.75 0 0 1-1.088.791L8 12.347l-3.766 1.98a.75.75 0 0 1-1.088-.79l.72-4.194L.818 6.374a.75.75 0 0 1 .416-1.28l4.21-.611L7.327.668A.75.75 0 0 1 8 .25Z"/></svg></g><text x="52" y="182" class="l">Total Stars Earned:</text><text x="475" y="182" class="v" text-anchor="end">8</text></g></svg>